<svg xmlns="http://www.w3.org/2000/svg" xmlns:xlink="http://www.w3.org/1999/xlink" style="margin:auto;background:rgba(NaN, NaN, NaN, 0);display:block;z-index:1;position:relative" width="2480" height="1345" preserveAspectRatio="xMidYMid" viewBox="0 0 2480 1345">
    <g transform="translate(1240,672.5) scale(1,1) translate(-1240,-672.5)"><path id="path0" d="M 523.5431115778001 1106.6545537452114
c 0 29.266270401608345 -7.160895949329701 8.40626915790878 -15.56716510723848 8.40626915790878
S 492.4087813633231 1135.9208241468198 492.4087813633231 1106.6545537452114
s 7.160895949329701 -8.40626915790878 15.56716510723848 -8.40626915790878
S 523.5431115778001 1077.388283343603 523.5431115778001 1106.6545537452114
z" fill="none" stroke="none"></path>
        <circle cx="0" cy="0" r="3.4418471440065153" fill="#c4b5fd" opacity="0.9">
            <animateMotion begin="-18.046123998188474s" dur="20s" repeatCount="indefinite">
                <mpath xlink:href="#path0"></mpath>
            </animateMotion>
        </circle><path id="path1" d="M 2117.576564122654 1091.4395620224523
c 0 27.453368669889482 -6.717313610717638 7.885542064755489 -14.602855675473128 7.885542064755489
S 2088.3708527717076 1118.8929306923417 2088.3708527717076 1091.4395620224523
s 6.717313610717638 -7.885542064755489 14.602855675473128 -7.885542064755489
S 2117.576564122654 1063.9861933525629 2117.576564122654 1091.4395620224523
z" fill="none" stroke="none"></path>
        <circle cx="0" cy="0" r="6.12637921209971" fill="#ffffff" opacity="0.9">
            <animateMotion begin="-0.07456072644606238s" dur="20s" repeatCount="indefinite">
                <mpath xlink:href="#path1"></mpath>
            </animateMotion>
        </circle><path id="path2" d="M 1309.3176194488308 1202.395503639721
c 0 37.46295770176196 -9.166468373835372 10.760636786676308 -19.92710516051168 10.760636786676308
S 1269.4634091278074 1239.858461341483 1269.4634091278074 1202.395503639721
s 9.166468373835372 -10.760636786676308 19.92710516051168 -10.760636786676308
S 1309.3176194488308 1164.932545937959 1309.3176194488308 1202.395503639721
z" fill="none" stroke="none"></path>
        <circle cx="0" cy="0" r="5.635425330424694" fill="#c4b5fd" opacity="0.9">
            <animateMotion begin="-12.326602911831896s" dur="20s" repeatCount="indefinite">
                <mpath xlink:href="#path2"></mpath>
            </animateMotion>
        </circle><path id="path3" d="M 373.2001100686087 1330.0951485813148
c 0 21.618543527119474 -5.289643628976041 6.2095816514066575 -11.4992252803827 6.2095816514066575
S 350.2016595078433 1351.7136921084343 350.2016595078433 1330.0951485813148
s 5.289643628976041 -6.2095816514066575 11.4992252803827 -6.2095816514066575
S 373.2001100686087 1308.4766050541953 373.2001100686087 1330.0951485813148
z" fill="none" stroke="none"></path>
        <circle cx="0" cy="0" r="3.6292429684909853" fill="#c4b5fd" opacity="0.9">
            <animateMotion begin="-8.604194437205761s" dur="20s" repeatCount="indefinite">
                <mpath xlink:href="#path3"></mpath>
            </animateMotion>
        </circle><path id="path4" d="M 303.4966897814018 683.3767236026165
c 0 34.880252886873826 -8.534529961681892 10.018796041974397 -18.553326003656288 10.018796041974397
S 266.3900377740892 718.2569764894903 266.3900377740892 683.3767236026165
s 8.534529961681892 -10.018796041974397 18.553326003656288 -10.018796041974397
S 303.4966897814018 648.4964707157427 303.4966897814018 683.3767236026165
z" fill="none" stroke="none"></path>
        <circle cx="0" cy="0" r="5.273444298922839" fill="#ffffff" opacity="0.9">
            <animateMotion begin="-7.313026817979504s" dur="20s" repeatCount="indefinite">
                <mpath xlink:href="#path4"></mpath>
            </animateMotion>
        </circle><path id="path5" d="M 401.54838249322944 686.2423315894265
c 0 37.20067083179296 -9.102291799268489 10.685299068706488 -19.787590867974977 10.685299068706488
S 361.97320075727947 723.4430024212195 361.97320075727947 686.2423315894265
s 9.102291799268489 -10.685299068706488 19.787590867974977 -10.685299068706488
S 401.54838249322944 649.0416607576335 401.54838249322944 686.2423315894265
z" fill="none" stroke="none"></path>
        <circle cx="0" cy="0" r="4.639964633187518" fill="#ffffff" opacity="0.9">
            <animateMotion begin="-16.83868752996981s" dur="20s" repeatCount="indefinite">
                <mpath xlink:href="#path5"></mpath>
            </animateMotion>
        </circle><path id="path6" d="M 1249.9271352181468 537.0799371556569
c 0 25.585092705356328 -6.260182257693568 7.348909606857669 -13.609091864551237 7.348909606857669
S 1222.7089514890445 562.6650298610133 1222.7089514890445 537.0799371556569
s 6.260182257693568 -7.348909606857669 13.609091864551237 -7.348909606857669
S 1249.9271352181468 511.4948444503006 1249.9271352181468 537.0799371556569
z" fill="none" stroke="none"></path>
        <circle cx="0" cy="0" r="5.794060473323695" fill="#ffffff" opacity="0.9">
            <animateMotion begin="-5.814734287112526s" dur="20s" repeatCount="indefinite">
                <mpath xlink:href="#path6"></mpath>
            </animateMotion>
        </circle><path id="path7" d="M 329.365002086311 277.6210154061009
c 0 30.91454424603001 -7.564196996369044 8.879709517476705 -16.44390651384575 8.879709517476705
S 296.47718905861944 308.5355596521309 296.47718905861944 277.6210154061009
s 7.564196996369044 -8.879709517476705 16.44390651384575 -8.879709517476705
S 329.365002086311 246.70647116007092 329.365002086311 277.6210154061009
z" fill="none" stroke="none"></path>
        <circle cx="0" cy="0" r="3.4197575617546137" fill="#ffffff" opacity="0.9">
            <animateMotion begin="-8.73776789443526s" dur="20s" repeatCount="indefinite">
                <mpath xlink:href="#path7"></mpath>
            </animateMotion>
        </circle><path id="path8" d="M 1546.5796009376475 651.3810596007387
c 0 25.158648446103452 -6.155839513408291 7.226420298348865 -13.382259811757155 7.226420298348865
S 1519.815081314133 676.5397080468422 1519.815081314133 651.3810596007387
s 6.155839513408291 -7.226420298348865 13.382259811757155 -7.226420298348865
S 1546.5796009376475 626.2224111546352 1546.5796009376475 651.3810596007387
z" fill="none" stroke="none"></path>
        <circle cx="0" cy="0" r="4.504002127541717" fill="#ffffff" opacity="0.9">
            <animateMotion begin="-16.595311630509432s" dur="20s" repeatCount="indefinite">
                <mpath xlink:href="#path8"></mpath>
            </animateMotion>
        </circle><path id="path9" d="M 775.9257937168634 605.6027485373456
c 0 27.072896542031344 -6.624219366667243 7.776257517391983 -14.400476884059225 7.776257517391983
S 747.1248399487449 632.675645079377 747.1248399487449 605.6027485373456
s 6.624219366667243 -7.776257517391983 14.400476884059225 -7.776257517391983
S 775.9257937168634 578.5298519953143 775.9257937168634 605.6027485373456
z" fill="none" stroke="none"></path>
        <circle cx="0" cy="0" r="5.326495399403128" fill="#c4b5fd" opacity="0.9">
            <animateMotion begin="-0.4158025245710206s" dur="20s" repeatCount="indefinite">
                <mpath xlink:href="#path9"></mpath>
            </animateMotion>
        </circle><path id="path10" d="M 868.1398121258907 1301.126779179195
c 0 33.1953105204268 -8.122256829466131 9.534823234590677 -17.657080064056807 9.534823234590677
S 832.8256519977771 1334.3220896996218 832.8256519977771 1301.126779179195
s 8.122256829466131 -9.534823234590677 17.657080064056807 -9.534823234590677
S 868.1398121258907 1267.9314686587682 868.1398121258907 1301.126779179195
z" fill="none" stroke="none"></path>
        <circle cx="0" cy="0" r="4.278806142913975" fill="#c4b5fd" opacity="0.9">
            <animateMotion begin="-5.477983745058039s" dur="20s" repeatCount="indefinite">
                <mpath xlink:href="#path10"></mpath>
            </animateMotion>
        </circle><path id="path11" d="M 1836.7673090407413 1204.2051820293025
c 0 35.462777411529444 -8.677062558140182 10.186116916077607 -18.86317947421779 10.186116916077607
S 1799.0409500923058 1239.667959440832 1799.0409500923058 1204.2051820293025
s 8.677062558140182 -10.186116916077607 18.86317947421779 -10.186116916077607
S 1836.7673090407413 1168.742404617773 1836.7673090407413 1204.2051820293025
z" fill="none" stroke="none"></path>
        <circle cx="0" cy="0" r="3.7243114804556634" fill="#ffffff" opacity="0.9">
            <animateMotion begin="-5.058541583479337s" dur="20s" repeatCount="indefinite">
                <mpath xlink:href="#path11"></mpath>
            </animateMotion>
        </circle><path id="path12" d="M 1017.7688252910583 465.6769791532083
c 0 24.68498782275179 -6.0399438289711815 7.090368842705301 -13.130312671676483 7.090368842705301
S 991.5081999477053 490.3619669759601 991.5081999477053 465.6769791532083
s 6.0399438289711815 -7.090368842705301 13.130312671676483 -7.090368842705301
S 1017.7688252910583 440.99199133045653 1017.7688252910583 465.6769791532083
z" fill="none" stroke="none"></path>
        <circle cx="0" cy="0" r="3.9333112672127015" fill="#c4b5fd" opacity="0.9">
            <animateMotion begin="-17.959811334917106s" dur="20s" repeatCount="indefinite">
                <mpath xlink:href="#path12"></mpath>
            </animateMotion>
        </circle><path id="path13" d="M 835.0873674191915 957.5230007630774
c 0 25.755770883551676 -6.301943939592431 7.397934189956333 -13.699878129548765 7.397934189956333
S 807.687611160094 983.2787716466291 807.687611160094 957.5230007630774
s 6.301943939592431 -7.397934189956333 13.699878129548765 -7.397934189956333
S 835.0873674191915 931.7672298795258 835.0873674191915 957.5230007630774
z" fill="none" stroke="none"></path>
        <circle cx="0" cy="0" r="5.409471124173067" fill="#c4b5fd" opacity="0.9">
            <animateMotion begin="-4.136530969815815s" dur="20s" repeatCount="indefinite">
                <mpath xlink:href="#path13"></mpath>
            </animateMotion>
        </circle><path id="path14" d="M 108.05524115998118 869.7033068842377
c 0 36.229342782085396 -8.864626425403872 10.406300586343677 -19.27092701174755 10.406300586343677
S 69.51338713648609 905.9326496663231 69.51338713648609 869.7033068842377
s 8.864626425403872 -10.406300586343677 19.27092701174755 -10.406300586343677
S 108.05524115998118 833.4739641021523 108.05524115998118 869.7033068842377
z" fill="none" stroke="none"></path>
        <circle cx="0" cy="0" r="4.684653222115596" fill="#ffffff" opacity="0.9">
            <animateMotion begin="-11.434398285600352s" dur="20s" repeatCount="indefinite">
                <mpath xlink:href="#path14"></mpath>
            </animateMotion>
        </circle><path id="path15" d="M 1355.8937001763954 993.9641756135726
c 0 29.41796613888054 -7.198012991428217 8.44984133776356 -15.647854329191777 8.44984133776356
S 1324.5979915180117 1023.3821417524531 1324.5979915180117 993.9641756135726
s 7.198012991428217 -8.44984133776356 15.647854329191777 -8.44984133776356
S 1355.8937001763954 964.5462094746921 1355.8937001763954 993.9641756135726
z" fill="none" stroke="none"></path>
        <circle cx="0" cy="0" r="5.522613243989094" fill="#ffffff" opacity="0.9">
            <animateMotion begin="-11.019679855980948s" dur="20s" repeatCount="indefinite">
                <mpath xlink:href="#path15"></mpath>
            </animateMotion>
        </circle><path id="path16" d="M 2368.710541252243 969.4509770997299
c 0 37.36245793269542 -9.141878004808452 10.731769831731663 -19.873647836540115 10.731769831731663
S 2328.963245579163 1006.8134350324253 2328.963245579163 969.4509770997299
s 9.141878004808452 -10.731769831731663 19.873647836540115 -10.731769831731663
S 2368.710541252243 932.0885191670345 2368.710541252243 969.4509770997299
z" fill="none" stroke="none"></path>
        <circle cx="0" cy="0" r="4.026933584483336" fill="#ffffff" opacity="0.9">
            <animateMotion begin="-9.58653018563085s" dur="20s" repeatCount="indefinite">
                <mpath xlink:href="#path16"></mpath>
            </animateMotion>
        </circle><path id="path17" d="M 1481.9735675686077 226.558342703583
c 0 26.336645070017934 -6.4440727298980045 7.564781030749833 -14.008853760647836 7.564781030749833
S 1453.9558600473122 252.89498777360095 1453.9558600473122 226.558342703583
s 6.4440727298980045 -7.564781030749833 14.008853760647836 -7.564781030749833
S 1481.9735675686077 200.22169763356507 1481.9735675686077 226.558342703583
z" fill="none" stroke="none"></path>
        <circle cx="0" cy="0" r="6.004918353496732" fill="#ffffff" opacity="0.9">
            <animateMotion begin="-5.518522219401896s" dur="20s" repeatCount="indefinite">
                <mpath xlink:href="#path17"></mpath>
            </animateMotion>
        </circle><path id="path18" d="M 2336.555381383831 291.32324491902807
c 0 34.544419494818875 -8.452357961498235 9.922333259150104 -18.374691220648337 9.922333259150104
S 2299.805998942534 325.86766441384697 2299.805998942534 291.32324491902807
s 8.452357961498235 -9.922333259150104 18.374691220648337 -9.922333259150104
S 2336.555381383831 256.7788254242092 2336.555381383831 291.32324491902807
z" fill="none" stroke="none"></path>
        <circle cx="0" cy="0" r="5.071289781059106" fill="#c4b5fd" opacity="0.9">
            <animateMotion begin="-17.145841143286052s" dur="20s" repeatCount="indefinite">
                <mpath xlink:href="#path18"></mpath>
            </animateMotion>
        </circle><path id="path19" d="M 2153.485830372645 488.0990574211739
c 0 20.874984571053112 -5.1077089907895905 5.996006206579085 -11.103715197368675 5.996006206579085
S 2131.2783999779076 508.974041992227 2131.2783999779076 488.0990574211739
s 5.1077089907895905 -5.996006206579085 11.103715197368675 -5.996006206579085
S 2153.485830372645 467.22407285012076 2153.485830372645 488.0990574211739
z" fill="none" stroke="none"></path>
        <circle cx="0" cy="0" r="5.74098365139334" fill="#ffffff" opacity="0.9">
            <animateMotion begin="-0.8965695878263436s" dur="20s" repeatCount="indefinite">
                <mpath xlink:href="#path19"></mpath>
            </animateMotion>
        </circle><path id="path20" d="M 2064.626825843687 1290.9184168813522
c 0 30.058032047822895 -7.354624862765176 8.633690056289556 -15.988314919054732 8.633690056289556
S 2032.6501960055778 1320.9764489291751 2032.6501960055778 1290.9184168813522
s 7.354624862765176 -8.633690056289556 15.988314919054732 -8.633690056289556
S 2064.626825843687 1260.8603848335292 2064.626825843687 1290.9184168813522
z" fill="none" stroke="none"></path>
        <circle cx="0" cy="0" r="6.471473368895165" fill="#c4b5fd" opacity="0.9">
            <animateMotion begin="-2.8621866065804413s" dur="20s" repeatCount="indefinite">
                <mpath xlink:href="#path20"></mpath>
            </animateMotion>
        </circle><path id="path21" d="M 1492.4362797010624 10.72008764402945
c 0 34.977479499317305 -8.558319451960617 10.046722834910291 -18.60504228687091 10.046722834910291
S 1455.2261951273206 45.69756714334675 1455.2261951273206 10.72008764402945
s 8.558319451960617 -10.046722834910291 18.60504228687091 -10.046722834910291
S 1492.4362797010624 -24.257391855287857 1492.4362797010624 10.72008764402945
z" fill="none" stroke="none"></path>
        <circle cx="0" cy="0" r="5.151608917138694" fill="#ffffff" opacity="0.9">
            <animateMotion begin="-14.731970184818394s" dur="20s" repeatCount="indefinite">
                <mpath xlink:href="#path21"></mpath>
            </animateMotion>
        </circle><path id="path22" d="M 1594.4859388590942 1087.6399483325326
c 0 34.551665016250304 -8.454130801848477 9.924414419561257 -18.378545221409734 9.924414419561257
S 1557.7288484162748 1122.191613348783 1557.7288484162748 1087.6399483325326
s 8.454130801848477 -9.924414419561257 18.378545221409734 -9.924414419561257
S 1594.4859388590942 1053.0882833162823 1594.4859388590942 1087.6399483325326
z" fill="none" stroke="none"></path>
        <circle cx="0" cy="0" r="5.395562727250458" fill="#ffffff" opacity="0.9">
            <animateMotion begin="-12.350132348218391s" dur="20s" repeatCount="indefinite">
                <mpath xlink:href="#path22"></mpath>
            </animateMotion>
        </circle><path id="path23" d="M 46.02114216578256 1190.4609500237862
c 0 26.58463184824285 -6.504750345846654 7.636011275559117 -14.14076162140577 7.636011275559117
S 17.73961892297101 1217.045581872029 17.73961892297101 1190.4609500237862
s 6.504750345846654 -7.636011275559117 14.14076162140577 -7.636011275559117
S 46.02114216578256 1163.8763181755432 46.02114216578256 1190.4609500237862
z" fill="none" stroke="none"></path>
        <circle cx="0" cy="0" r="5.398270217855417" fill="#c4b5fd" opacity="0.9">
            <animateMotion begin="-0.8683202672488344s" dur="20s" repeatCount="indefinite">
                <mpath xlink:href="#path23"></mpath>
            </animateMotion>
        </circle><path id="path24" d="M 1835.0861103241257 942.6453348080591
c 0 25.62330338812335 -6.269531680072734 7.359885015737558 -13.629416695810292 7.359885015737558
S 1807.8272769325051 968.2686381961825 1807.8272769325051 942.6453348080591
s 6.269531680072734 -7.359885015737558 13.629416695810292 -7.359885015737558
S 1835.0861103241257 917.0220314199358 1835.0861103241257 942.6453348080591
z" fill="none" stroke="none"></path>
        <circle cx="0" cy="0" r="5.256655178108987" fill="#ffffff" opacity="0.9">
            <animateMotion begin="-5.569508754359838s" dur="20s" repeatCount="indefinite">
                <mpath xlink:href="#path24"></mpath>
            </animateMotion>
        </circle><path id="path25" d="M 1375.214202304298 675.039325051131
c 0 34.9016279112317 -8.539760020833286 10.024935676630381 -18.56469569746367 10.024935676630381
S 1338.0848109093704 709.9409529623626 1338.0848109093704 675.039325051131
s 8.539760020833286 -10.024935676630381 18.56469569746367 -10.024935676630381
S 1375.214202304298 640.1376971398993 1375.214202304298 675.039325051131
z" fill="none" stroke="none"></path>
        <circle cx="0" cy="0" r="3.998953350747191" fill="#c4b5fd" opacity="0.9">
            <animateMotion begin="-11.135772493482058s" dur="20s" repeatCount="indefinite">
                <mpath xlink:href="#path25"></mpath>
            </animateMotion>
        </circle><path id="path26" d="M 159.88918493435918 905.3266648975056
c 0 23.822078101333172 -5.8288063439432225 6.842511795063784 -12.671318139007006 6.842511795063784
S 134.54654865634515 929.1487429988388 134.54654865634515 905.3266648975056
s 5.8288063439432225 -6.842511795063784 12.671318139007006 -6.842511795063784
S 159.88918493435918 881.5045867961724 159.88918493435918 905.3266648975056
z" fill="none" stroke="none"></path>
        <circle cx="0" cy="0" r="4.509060007276793" fill="#ffffff" opacity="0.9">
            <animateMotion begin="-1.648337163963518s" dur="20s" repeatCount="indefinite">
                <mpath xlink:href="#path26"></mpath>
            </animateMotion>
        </circle><path id="path27" d="M 67.89737754075952 1333.497782518024
c 0 37.00589506482652 -9.05463389884053 10.62935283776932 -19.68398673660985 10.62935283776932
S 28.529404067539826 1370.5036775828505 28.529404067539826 1333.497782518024
s 9.05463389884053 -10.62935283776932 19.68398673660985 -10.62935283776932
S 67.89737754075952 1296.4918874531975 67.89737754075952 1333.497782518024
z" fill="none" stroke="none"></path>
        <circle cx="0" cy="0" r="6.2578208438258285" fill="#c4b5fd" opacity="0.9">
            <animateMotion begin="-18.762374022506382s" dur="20s" repeatCount="indefinite">
                <mpath xlink:href="#path27"></mpath>
            </animateMotion>
        </circle><path id="path28" d="M 1471.4730646377814 1003.1137099760891
c 0 31.267479839821565 -7.65055357782868 8.981084634842365 -16.631638212671046 8.981084634842365
S 1438.2097882124392 1034.3811898159106 1438.2097882124392 1003.1137099760891
s 7.65055357782868 -8.981084634842365 16.631638212671046 -8.981084634842365
S 1471.4730646377814 971.8462301362675 1471.4730646377814 1003.1137099760891
z" fill="none" stroke="none"></path>
        <circle cx="0" cy="0" r="5.485398827143622" fill="#c4b5fd" opacity="0.9">
            <animateMotion begin="-3.352882898102809s" dur="20s" repeatCount="indefinite">
                <mpath xlink:href="#path28"></mpath>
            </animateMotion>
        </circle><path id="path29" d="M 1899.5819270488287 800.8596117830587
c 0 20.784204332883167 -5.085496804854391 5.96993103178559 -11.055427836639982 5.96993103178559
S 1877.4710713755485 821.6438161159418 1877.4710713755485 800.8596117830587
s 5.085496804854391 -5.96993103178559 11.055427836639982 -5.96993103178559
S 1899.5819270488287 780.0754074501755 1899.5819270488287 800.8596117830587
z" fill="none" stroke="none"></path>
        <circle cx="0" cy="0" r="3.970332785483063" fill="#c4b5fd" opacity="0.9">
            <animateMotion begin="-18.699025408266856s" dur="20s" repeatCount="indefinite">
                <mpath xlink:href="#path29"></mpath>
            </animateMotion>
        </circle><path id="path30" d="M 867.5340939245663 775.955279047062
c 0 21.54499805228023 -5.271648459600482 6.188456887357088 -11.460105346957569 6.188456887357088
S 844.6138832306511 797.5002770993423 844.6138832306511 775.955279047062
s 5.271648459600482 -6.188456887357088 11.460105346957569 -6.188456887357088
S 867.5340939245663 754.4102809947818 867.5340939245663 775.955279047062
z" fill="none" stroke="none"></path>
        <circle cx="0" cy="0" r="5.438834628885696" fill="#ffffff" opacity="0.9">
            <animateMotion begin="-8.566609977744623s" dur="20s" repeatCount="indefinite">
                <mpath xlink:href="#path30"></mpath>
            </animateMotion>
        </circle><path id="path31" d="M 302.107485985885 731.7904835369112
c 0 20.066332140352742 -4.9098472258309895 5.7637336998885536 -10.673580925719543 5.7637336998885536
S 280.7603241344459 751.856815677264 280.7603241344459 731.7904835369112
s 4.9098472258309895 -5.7637336998885536 10.673580925719543 -5.7637336998885536
S 302.107485985885 711.7241513965585 302.107485985885 731.7904835369112
z" fill="none" stroke="none"></path>
        <circle cx="0" cy="0" r="4.227041355250945" fill="#c4b5fd" opacity="0.9">
            <animateMotion begin="-11.619415305261306s" dur="20s" repeatCount="indefinite">
                <mpath xlink:href="#path31"></mpath>
            </animateMotion>
        </circle><path id="path32" d="M 1699.8725528349757 270.0909493197076
c 0 22.465880417858024 -5.496970740539728 6.452965651937943 -11.949936392477671 6.452965651937943
S 1675.9726800500205 292.55682973756564 1675.9726800500205 270.0909493197076
s 5.496970740539728 -6.452965651937943 11.949936392477671 -6.452965651937943
S 1699.8725528349757 247.62506890184957 1699.8725528349757 270.0909493197076
z" fill="none" stroke="none"></path>
        <circle cx="0" cy="0" r="4.221154785952605" fill="#ffffff" opacity="0.9">
            <animateMotion begin="-15.322655072984151s" dur="20s" repeatCount="indefinite">
                <mpath xlink:href="#path32"></mpath>
            </animateMotion>
        </circle><path id="path33" d="M 2069.4971915085875 968.0647808671848
c 0 23.387434497816443 -5.722457377125299 6.717667355755787 -12.440124732881086 6.717667355755787
S 2044.6169420428255 991.4522153650013 2044.6169420428255 968.0647808671848
s 5.722457377125299 -6.717667355755787 12.440124732881086 -6.717667355755787
S 2069.4971915085875 944.6773463693684 2069.4971915085875 968.0647808671848
z" fill="none" stroke="none"></path>
        <circle cx="0" cy="0" r="5.908585547752008" fill="#ffffff" opacity="0.9">
            <animateMotion begin="-11.331708407540614s" dur="20s" repeatCount="indefinite">
                <mpath xlink:href="#path33"></mpath>
            </animateMotion>
        </circle><path id="path34" d="M 288.0745265049896 895.1427266280713
c 0 22.382126974861254 -5.476477876827753 6.428908811928233 -11.905386688755986 6.428908811928233
S 264.2637531274776 917.5248536029326 264.2637531274776 895.1427266280713
s 5.476477876827753 -6.428908811928233 11.905386688755986 -6.428908811928233
S 288.0745265049896 872.76059965321 288.0745265049896 895.1427266280713
z" fill="none" stroke="none"></path>
        <circle cx="0" cy="0" r="5.922546825942641" fill="#ffffff" opacity="0.9">
            <animateMotion begin="-6.9558952730684664s" dur="20s" repeatCount="indefinite">
                <mpath xlink:href="#path34"></mpath>
            </animateMotion>
        </circle><path id="path35" d="M 804.99286688995 1103.0703160949315
c 0 35.92830920883397 -8.79096927450193 10.31983349615444 -19.110802770656367 10.31983349615444
S 766.7712613486373 1138.9986253037655 766.7712613486373 1103.0703160949315
s 8.79096927450193 -10.31983349615444 19.110802770656367 -10.31983349615444
S 804.99286688995 1067.1420068860975 804.99286688995 1103.0703160949315
z" fill="none" stroke="none"></path>
        <circle cx="0" cy="0" r="4.855565758218744" fill="#c4b5fd" opacity="0.9">
            <animateMotion begin="-14.996431446927359s" dur="20s" repeatCount="indefinite">
                <mpath xlink:href="#path35"></mpath>
            </animateMotion>
        </circle><path id="path36" d="M 285.63224419607394 769.1290706833531
c 0 24.735035173881222 -6.052189457439022 7.1047441456892875 -13.156933603128309 7.1047441456892875
S 259.3183769898173 793.8641058572343 259.3183769898173 769.1290706833531
s 6.052189457439022 -7.1047441456892875 13.156933603128309 -7.1047441456892875
S 285.63224419607394 744.3940355094719 285.63224419607394 769.1290706833531
z" fill="none" stroke="none"></path>
        <circle cx="0" cy="0" r="5.478507898679819" fill="#c4b5fd" opacity="0.9">
            <animateMotion begin="-10.653941645087492s" dur="20s" repeatCount="indefinite">
                <mpath xlink:href="#path36"></mpath>
            </animateMotion>
        </circle><path id="path37" d="M 1415.4068273085081 480.7549914472285
c 0 37.481238779566894 -9.170941403511048 10.765887734556449 -19.9368291380675 10.765887734556449
S 1375.5331690323733 518.2362302267954 1375.5331690323733 480.7549914472285
s 9.170941403511048 -10.765887734556449 19.9368291380675 -10.765887734556449
S 1415.4068273085081 443.2737526676616 1415.4068273085081 480.7549914472285
z" fill="none" stroke="none"></path>
        <circle cx="0" cy="0" r="5.6444177351860665" fill="#ffffff" opacity="0.9">
            <animateMotion begin="-2.706780224426417s" dur="20s" repeatCount="indefinite">
                <mpath xlink:href="#path37"></mpath>
            </animateMotion>
        </circle><path id="path38" d="M 103.12772201520538 863.2545518350504
c 0 25.19809349319429 -6.16549096110073 7.237750258683467 -13.403241219784196 7.237750258683467
S 76.321239575637 888.4526453282447 76.321239575637 863.2545518350504
s 6.16549096110073 -7.237750258683467 13.403241219784196 -7.237750258683467
S 103.12772201520538 838.0564583418561 103.12772201520538 863.2545518350504
z" fill="none" stroke="none"></path>
        <circle cx="0" cy="0" r="4.8034990443544" fill="#ffffff" opacity="0.9">
            <animateMotion begin="-12.86541470269734s" dur="20s" repeatCount="indefinite">
                <mpath xlink:href="#path38"></mpath>
            </animateMotion>
        </circle><path id="path39" d="M 2281.847592793557 693.1176415252368
c 0 27.069193560331765 -6.623313317953516 7.775193894988912 -14.398507212942429 7.775193894988912
S 2253.0505783676717 720.1868350855685 2253.0505783676717 693.1176415252368
s 6.623313317953516 -7.775193894988912 14.398507212942429 -7.775193894988912
S 2281.847592793557 666.048447964905 2281.847592793557 693.1176415252368
z" fill="none" stroke="none"></path>
        <circle cx="0" cy="0" r="3.954128107434647" fill="#c4b5fd" opacity="0.9">
            <animateMotion begin="-16.328687002729822s" dur="20s" repeatCount="indefinite">
                <mpath xlink:href="#path39"></mpath>
            </animateMotion>
        </circle><path id="path40" d="M 1010.455788763552 208.90255712031777
c 0 32.04768104505048 -7.841453872725117 9.20518498102514 -17.046638853750256 9.20518498102514
S 976.3625110560516 240.95023816536826 976.3625110560516 208.90255712031777
s 7.841453872725117 -9.20518498102514 17.046638853750256 -9.20518498102514
S 1010.455788763552 176.85487607526727 1010.455788763552 208.90255712031777
z" fill="none" stroke="none"></path>
        <circle cx="0" cy="0" r="5.348002363142003" fill="#ffffff" opacity="0.9">
            <animateMotion begin="-17.88824474070443s" dur="20s" repeatCount="indefinite">
                <mpath xlink:href="#path40"></mpath>
            </animateMotion>
        </circle><path id="path41" d="M 1616.6927628120643 246.24490574008976
c 0 25.459784490005077 -6.229521736916135 7.312916821597203 -13.54243855851334 7.312916821597203
S 1589.6078856950376 271.70469023009485 1589.6078856950376 246.24490574008976
s 6.229521736916135 -7.312916821597203 13.54243855851334 -7.312916821597203
S 1616.6927628120643 220.78512125008467 1616.6927628120643 246.24490574008976
z" fill="none" stroke="none"></path>
        <circle cx="0" cy="0" r="5.84018205498812" fill="#c4b5fd" opacity="0.9">
            <animateMotion begin="-15.056939825712504s" dur="20s" repeatCount="indefinite">
                <mpath xlink:href="#path41"></mpath>
            </animateMotion>
        </circle><path id="path42" d="M 755.9547737624471 469.86650194480114
c 0 37.14707218156161 -9.08917723591401 10.669903711725144 -19.759080947639156 10.669903711725144
S 716.4366118671687 507.01357412636276 716.4366118671687 469.86650194480114
s 9.08917723591401 -10.669903711725144 19.759080947639156 -10.669903711725144
S 755.9547737624471 432.71942976323953 755.9547737624471 469.86650194480114
z" fill="none" stroke="none"></path>
        <circle cx="0" cy="0" r="6.102700950273026" fill="#c4b5fd" opacity="0.9">
            <animateMotion begin="-9.179948336978544s" dur="20s" repeatCount="indefinite">
                <mpath xlink:href="#path42"></mpath>
            </animateMotion>
        </circle><path id="path43" d="M 2000.9375536785353 722.1966438914025
c 0 26.427036433302536 -6.466189765595301 7.590744507437963 -14.056934273033264 7.590744507437963
S 1972.8236851324689 748.623680324705 1972.8236851324689 722.1966438914025
s 6.466189765595301 -7.590744507437963 14.056934273033264 -7.590744507437963
S 2000.9375536785353 695.7696074580999 2000.9375536785353 722.1966438914025
z" fill="none" stroke="none"></path>
        <circle cx="0" cy="0" r="4.634831025549329" fill="#c4b5fd" opacity="0.9">
            <animateMotion begin="-10.879890468483659s" dur="20s" repeatCount="indefinite">
                <mpath xlink:href="#path43"></mpath>
            </animateMotion>
        </circle><path id="path44" d="M 1674.2024892562524 1096.7182522034632
c 0 18.914194374960044 -4.627941176851926 5.432800511956609 -10.060741688808534 5.432800511956609
S 1654.0810058786353 1115.6324465784232 1654.0810058786353 1096.7182522034632
s 4.627941176851926 -5.432800511956609 10.060741688808534 -5.432800511956609
S 1674.2024892562524 1077.8040578285031 1674.2024892562524 1096.7182522034632
z" fill="none" stroke="none"></path>
        <circle cx="0" cy="0" r="6.152939379321468" fill="#ffffff" opacity="0.9">
            <animateMotion begin="-18.36301705300951s" dur="20s" repeatCount="indefinite">
                <mpath xlink:href="#path44"></mpath>
            </animateMotion>
        </circle><path id="path45" d="M 2383.0931928497425 397.1179667133968
c 0 28.304246934465443 -6.925507228645799 8.129943268410287 -15.055450497056086 8.129943268410287
S 2352.9822918556306 425.42221364786224 2352.9822918556306 397.1179667133968
s 6.925507228645799 -8.129943268410287 15.055450497056086 -8.129943268410287
S 2383.0931928497425 368.8137197789314 2383.0931928497425 397.1179667133968
z" fill="none" stroke="none"></path>
        <circle cx="0" cy="0" r="5.629346925398072" fill="#c4b5fd" opacity="0.9">
            <animateMotion begin="-12.684629238263101s" dur="20s" repeatCount="indefinite">
                <mpath xlink:href="#path45"></mpath>
            </animateMotion>
        </circle><path id="path46" d="M 180.01467450172387 1259.115558202913
c 0 21.579073159235932 -5.279985985770494 6.1982444180784055 -11.4782304038489 6.1982444180784055
S 157.05821369402608 1280.694631362149 157.05821369402608 1259.115558202913
s 5.279985985770494 -6.1982444180784055 11.4782304038489 -6.1982444180784055
S 180.01467450172387 1237.536485043677 180.01467450172387 1259.115558202913
z" fill="none" stroke="none"></path>
        <circle cx="0" cy="0" r="5.971173013394454" fill="#ffffff" opacity="0.9">
            <animateMotion begin="-0.45348619774659316s" dur="20s" repeatCount="indefinite">
                <mpath xlink:href="#path46"></mpath>
            </animateMotion>
        </circle><path id="path47" d="M 344.58089743000056 187.86170927622206
c 0 31.46497157644258 -7.698876024023183 9.037810984722869 -16.736687008746053 9.037810984722869
S 311.10752341250844 219.32668085266465 311.10752341250844 187.86170927622206
s 7.698876024023183 -9.037810984722869 16.736687008746053 -9.037810984722869
S 344.58089743000056 156.39673769977946 344.58089743000056 187.86170927622206
z" fill="none" stroke="none"></path>
        <circle cx="0" cy="0" r="5.961583751106442" fill="#c4b5fd" opacity="0.9">
            <animateMotion begin="-2.013814694209932s" dur="20s" repeatCount="indefinite">
                <mpath xlink:href="#path47"></mpath>
            </animateMotion>
        </circle><path id="path48" d="M 1654.9677188501466 449.0768169064394
c 0 24.59193332057553 -6.017175174183374 7.06364042186744 -13.080815596050815 7.06364042186744
S 1628.806087658045 473.6687502270149 1628.806087658045 449.0768169064394
s 6.017175174183374 -7.06364042186744 13.080815596050815 -7.06364042186744
S 1654.9677188501466 424.4848835858638 1654.9677188501466 449.0768169064394
z" fill="none" stroke="none"></path>
        <circle cx="0" cy="0" r="4.185992197769601" fill="#c4b5fd" opacity="0.9">
            <animateMotion begin="-1.1405490529546514s" dur="20s" repeatCount="indefinite">
                <mpath xlink:href="#path48"></mpath>
            </animateMotion>
        </circle><path id="path49" d="M 816.9450644067263 135.76407632013635
c 0 25.019891432766972 -6.1218883292940465 7.18656456047562 -13.308452889769667 7.18656456047562
S 790.3281586271869 160.78396775290332 790.3281586271869 135.76407632013635
s 6.1218883292940465 -7.18656456047562 13.308452889769667 -7.18656456047562
S 816.9450644067263 110.74418488736939 816.9450644067263 135.76407632013635
z" fill="none" stroke="none"></path>
        <circle cx="0" cy="0" r="5.383234328344063" fill="#ffffff" opacity="0.9">
            <animateMotion begin="-7.436185077842961s" dur="20s" repeatCount="indefinite">
                <mpath xlink:href="#path49"></mpath>
            </animateMotion>
        </circle><path id="path50" d="M 1860.0125830606585 1020.0339669624651
c 0 31.186459256833395 -7.630729392629447 8.957812765260655 -16.588542157890103 8.957812765260655
S 1826.8354987448784 1051.2204262192986 1826.8354987448784 1020.0339669624651
s 7.630729392629447 -8.957812765260655 16.588542157890103 -8.957812765260655
S 1860.0125830606585 988.8475077056318 1860.0125830606585 1020.0339669624651
z" fill="none" stroke="none"></path>
        <circle cx="0" cy="0" r="4.2966052699599775" fill="#ffffff" opacity="0.9">
            <animateMotion begin="-17.413243380736432s" dur="20s" repeatCount="indefinite">
                <mpath xlink:href="#path50"></mpath>
            </animateMotion>
        </circle><path id="path51" d="M 698.6925293102172 211.06979159444307
c 0 35.27762518651267 -8.631759354146718 10.132934893998321 -18.76469424814504 10.132934893998321
S 661.1631408139272 246.34741678095574 661.1631408139272 211.06979159444307
s 8.631759354146718 -10.132934893998321 18.76469424814504 -10.132934893998321
S 698.6925293102172 175.7921664079304 698.6925293102172 211.06979159444307
z" fill="none" stroke="none"></path>
        <circle cx="0" cy="0" r="4.636149694509773" fill="#ffffff" opacity="0.9">
            <animateMotion begin="-17.95240766958772s" dur="20s" repeatCount="indefinite">
                <mpath xlink:href="#path51"></mpath>
            </animateMotion>
        </circle><path id="path52" d="M 1143.2465877355069 976.9530343555663
c 0 20.113986203539895 -4.921507262568271 5.777421569101884 -10.698928831670155 5.777421569101884
S 1121.8487300721665 997.0670205591061 1121.8487300721665 976.9530343555663
s 4.921507262568271 -5.777421569101884 10.698928831670155 -5.777421569101884
S 1143.2465877355069 956.8390481520264 1143.2465877355069 976.9530343555663
z" fill="none" stroke="none"></path>
        <circle cx="0" cy="0" r="4.531722874482248" fill="#c4b5fd" opacity="0.9">
            <animateMotion begin="-17.926085396922424s" dur="20s" repeatCount="indefinite">
                <mpath xlink:href="#path52"></mpath>
            </animateMotion>
        </circle><path id="path53" d="M 813.57732731424 572.6597522637078
c 0 22.183584506980065 -5.42789833681427 6.371880656260231 -11.7997789930745 6.371880656260231
S 789.9777693280911 594.8433367706879 789.9777693280911 572.6597522637078
s 5.42789833681427 -6.371880656260231 11.7997789930745 -6.371880656260231
S 813.57732731424 550.4761677567277 813.57732731424 572.6597522637078
z" fill="none" stroke="none"></path>
        <circle cx="0" cy="0" r="4.564884405245348" fill="#ffffff" opacity="0.9">
            <animateMotion begin="-6.311448649954783s" dur="20s" repeatCount="indefinite">
                <mpath xlink:href="#path53"></mpath>
            </animateMotion>
        </circle><path id="path54" d="M 1745.6331806425235 48.81518680649375
c 0 21.337482542669164 -5.220873388099902 6.128851368639015 -11.349724756738917 6.128851368639015
S 1722.9337311290458 70.15266934916292 1722.9337311290458 48.81518680649375
s 5.220873388099902 -6.128851368639015 11.349724756738917 -6.128851368639015
S 1745.6331806425235 27.477704263824585 1745.6331806425235 48.81518680649375
z" fill="none" stroke="none"></path>
        <circle cx="0" cy="0" r="3.515988768970534" fill="#c4b5fd" opacity="0.9">
            <animateMotion begin="-4.682799581820878s" dur="20s" repeatCount="indefinite">
                <mpath xlink:href="#path54"></mpath>
            </animateMotion>
        </circle><path id="path55" d="M 1491.5025665809846 1130.8539434725267
c 0 23.94557995943545 -5.859024883691652 6.877985733029331 -12.737010616720983 6.877985733029331
S 1466.0285453475428 1154.7995234319621 1466.0285453475428 1130.8539434725267
s 5.859024883691652 -6.877985733029331 12.737010616720983 -6.877985733029331
S 1491.5025665809846 1106.9083635130912 1491.5025665809846 1130.8539434725267
z" fill="none" stroke="none"></path>
        <circle cx="0" cy="0" r="4.199810782576254" fill="#ffffff" opacity="0.9">
            <animateMotion begin="-4.747334604281619s" dur="20s" repeatCount="indefinite">
                <mpath xlink:href="#path55"></mpath>
            </animateMotion>
        </circle><path id="path56" d="M 1552.6281740479888 1061.3439033436343
c 0 34.25356640753788 -8.381191780567777 9.838790351101306 -18.219982131669084 9.838790351101306
S 1516.1882097846508 1095.5974697511722 1516.1882097846508 1061.3439033436343
s 8.381191780567777 -9.838790351101306 18.219982131669084 -9.838790351101306
S 1552.6281740479888 1027.0903369360965 1552.6281740479888 1061.3439033436343
z" fill="none" stroke="none"></path>
        <circle cx="0" cy="0" r="4.902375170401395" fill="#ffffff" opacity="0.9">
            <animateMotion begin="-10.264715770475519s" dur="20s" repeatCount="indefinite">
                <mpath xlink:href="#path56"></mpath>
            </animateMotion>
        </circle><path id="path57" d="M 1089.8397155168102 472.769202828037
c 0 33.55010243012958 -8.209067615882768 9.636731549079771 -17.84579916496254 9.636731549079771
S 1054.1481171868852 506.3193052581666 1054.1481171868852 472.769202828037
s 8.209067615882768 -9.636731549079771 17.84579916496254 -9.636731549079771
S 1089.8397155168102 439.2191003979074 1089.8397155168102 472.769202828037
z" fill="none" stroke="none"></path>
        <circle cx="0" cy="0" r="3.3776281253970595" fill="#ffffff" opacity="0.9">
            <animateMotion begin="-3.1365588256100185s" dur="20s" repeatCount="indefinite">
                <mpath xlink:href="#path57"></mpath>
            </animateMotion>
        </circle><path id="path58" d="M 1139.3308731558877 848.751813064528
c 0 31.488956557942743 -7.704744689709393 9.044700287919724 -16.749444977629118 9.044700287919724
S 1105.8319832006296 880.2407696224708 1105.8319832006296 848.751813064528
s 7.704744689709393 -9.044700287919724 16.749444977629118 -9.044700287919724
S 1139.3308731558877 817.2628565065853 1139.3308731558877 848.751813064528
z" fill="none" stroke="none"></path>
        <circle cx="0" cy="0" r="5.31343298994052" fill="#c4b5fd" opacity="0.9">
            <animateMotion begin="-12.889929925966763s" dur="20s" repeatCount="indefinite">
                <mpath xlink:href="#path58"></mpath>
            </animateMotion>
        </circle><path id="path59" d="M 1663.3972948974013 637.8680765224764
c 0 30.641310982194153 -7.497342048834739 8.80122762254513 -16.298569671379866 8.80122762254513
S 1630.8001555546414 668.5093875046705 1630.8001555546414 637.8680765224764
s 7.497342048834739 -8.80122762254513 16.298569671379866 -8.80122762254513
S 1663.3972948974013 607.2267655402823 1663.3972948974013 637.8680765224764
z" fill="none" stroke="none"></path>
        <circle cx="0" cy="0" r="6.232547492981245" fill="#c4b5fd" opacity="0.9">
            <animateMotion begin="-8.389772698554259s" dur="20s" repeatCount="indefinite">
                <mpath xlink:href="#path59"></mpath>
            </animateMotion>
        </circle><path id="path60" d="M 1866.5998251023325 263.4313688618551
c 0 31.09775597801114 -7.609025398875065 8.932334163896817 -16.54135956277188 8.932334163896817
S 1833.5171059767886 294.52912483986626 1833.5171059767886 263.4313688618551
s 7.609025398875065 -8.932334163896817 16.54135956277188 -8.932334163896817
S 1866.5998251023325 232.33361288384395 1866.5998251023325 263.4313688618551
z" fill="none" stroke="none"></path>
        <circle cx="0" cy="0" r="4.101824591139502" fill="#c4b5fd" opacity="0.9">
            <animateMotion begin="-14.938247666673309s" dur="20s" repeatCount="indefinite">
                <mpath xlink:href="#path60"></mpath>
            </animateMotion>
        </circle><path id="path61" d="M 1033.3999262649252 544.6450302695526
c 0 23.43745063652706 -5.7346953685119395 6.732033693470538 -12.466729061982477 6.732033693470538
S 1008.4664681409603 568.0824809060797 1008.4664681409603 544.6450302695526
s 5.7346953685119395 -6.732033693470538 12.466729061982477 -6.732033693470538
S 1033.3999262649252 521.2075796330256 1033.3999262649252 544.6450302695526
z" fill="none" stroke="none"></path>
        <circle cx="0" cy="0" r="3.406205918734041" fill="#ffffff" opacity="0.9">
            <animateMotion begin="-19.542064564087852s" dur="20s" repeatCount="indefinite">
                <mpath xlink:href="#path61"></mpath>
            </animateMotion>
        </circle><path id="path62" d="M 2477.5263675670994 841.8864812550698
c 0 24.973784660214132 -6.1106068849460105 7.173321125806187 -13.283928010752197 7.173321125806187
S 2450.958511545595 866.860265915284 2450.958511545595 841.8864812550698
s 6.1106068849460105 -7.173321125806187 13.283928010752197 -7.173321125806187
S 2477.5263675670994 816.9126965948557 2477.5263675670994 841.8864812550698
z" fill="none" stroke="none"></path>
        <circle cx="0" cy="0" r="4.416171439493659" fill="#ffffff" opacity="0.9">
            <animateMotion begin="-10.493950480213803s" dur="20s" repeatCount="indefinite">
                <mpath xlink:href="#path62"></mpath>
            </animateMotion>
        </circle><path id="path63" d="M 272.4316496172452 92.52747047310721
c 0 33.603580855822536 -8.222152762594874 9.65209237348094 -17.874245136075814 9.65209237348094
S 236.6831593450936 126.13105132892974 236.6831593450936 92.52747047310721
s 8.222152762594874 -9.65209237348094 17.874245136075814 -9.65209237348094
S 272.4316496172452 58.92388961728468 272.4316496172452 92.52747047310721
z" fill="none" stroke="none"></path>
        <circle cx="0" cy="0" r="5.992710978486558" fill="#ffffff" opacity="0.9">
            <animateMotion begin="-1.578231131633867s" dur="20s" repeatCount="indefinite">
                <mpath xlink:href="#path63"></mpath>
            </animateMotion>
        </circle><path id="path64" d="M 2270.216317447906 255.70305330119237
c 0 21.699849515453092 -5.309537647398097 6.232935499119506 -11.542473146517603 6.232935499119506
S 2247.1313711548705 277.40290281664545 2247.1313711548705 255.70305330119237
s 5.309537647398097 -6.232935499119506 11.542473146517603 -6.232935499119506
S 2270.216317447906 234.0032037857393 2270.216317447906 255.70305330119237
z" fill="none" stroke="none"></path>
        <circle cx="0" cy="0" r="3.5269949871076345" fill="#ffffff" opacity="0.9">
            <animateMotion begin="-4.4751235887930285s" dur="20s" repeatCount="indefinite">
                <mpath xlink:href="#path64"></mpath>
            </animateMotion>
        </circle><path id="path65" d="M 2454.535012657995 286.92095074291353
c 0 27.83662594728629 -6.811089327527496 7.995626601880105 -14.806715929407602 7.995626601880105
S 2424.9215807991795 314.7575766901998 2424.9215807991795 286.92095074291353
s 6.811089327527496 -7.995626601880105 14.806715929407602 -7.995626601880105
S 2454.535012657995 259.08432479562725 2454.535012657995 286.92095074291353
z" fill="none" stroke="none"></path>
        <circle cx="0" cy="0" r="4.043443190846666" fill="#ffffff" opacity="0.9">
            <animateMotion begin="-13.584776892957947s" dur="20s" repeatCount="indefinite">
                <mpath xlink:href="#path65"></mpath>
            </animateMotion>
        </circle><path id="path66" d="M 947.0209582956865 1296.408690675126
c 0 20.83613912154117 -5.098204253143051 5.984848471080974 -11.083052724224025 5.984848471080974
S 924.8548528472385 1317.2448297966673 924.8548528472385 1296.408690675126
s 5.098204253143051 -5.984848471080974 11.083052724224025 -5.984848471080974
S 947.0209582956865 1275.5725515535848 947.0209582956865 1296.408690675126
z" fill="none" stroke="none"></path>
        <circle cx="0" cy="0" r="3.607574481785892" fill="#c4b5fd" opacity="0.9">
            <animateMotion begin="-13.494809226637106s" dur="20s" repeatCount="indefinite">
                <mpath xlink:href="#path66"></mpath>
            </animateMotion>
        </circle><path id="path67" d="M 2331.4185396367448 437.4215543800134
c 0 27.085062629997275 -6.6271961754248645 7.779752032020494 -14.406948207445359 7.779752032020494
S 2302.6046432218536 464.50661701001064 2302.6046432218536 437.4215543800134
s 6.6271961754248645 -7.779752032020494 14.406948207445359 -7.779752032020494
S 2331.4185396367448 410.33649175001614 2331.4185396367448 437.4215543800134
z" fill="none" stroke="none"></path>
        <circle cx="0" cy="0" r="5.286650179564179" fill="#c4b5fd" opacity="0.9">
            <animateMotion begin="-5.006666158649273s" dur="20s" repeatCount="indefinite">
                <mpath xlink:href="#path67"></mpath>
            </animateMotion>
        </circle><path id="path68" d="M 2281.334084015338 855.4117167782431
c 0 29.397764103245063 -7.193069940155706 8.444038625400179 -15.637108565555884 8.444038625400179
S 2250.059866884226 884.8094808814882 2250.059866884226 855.4117167782431
s 7.193069940155706 -8.444038625400179 15.637108565555884 -8.444038625400179
S 2281.334084015338 826.013952674998 2281.334084015338 855.4117167782431
z" fill="none" stroke="none"></path>
        <circle cx="0" cy="0" r="4.256191108300561" fill="#ffffff" opacity="0.9">
            <animateMotion begin="-15.655857336905976s" dur="20s" repeatCount="indefinite">
                <mpath xlink:href="#path68"></mpath>
            </animateMotion>
        </circle><path id="path69" d="M 1950.3642574237133 1094.6594366082502
c 0 26.4795577872167 -6.4790407351700425 7.605830428243094 -14.084871163413137 7.605830428243094
S 1922.1945150968872 1121.1389943954669 1922.1945150968872 1094.6594366082502
s 6.4790407351700425 -7.605830428243094 14.084871163413137 -7.605830428243094
S 1950.3642574237133 1068.1798788210335 1950.3642574237133 1094.6594366082502
z" fill="none" stroke="none"></path>
        <circle cx="0" cy="0" r="6.49567252798225" fill="#ffffff" opacity="0.9">
            <animateMotion begin="-13.932432338769063s" dur="20s" repeatCount="indefinite">
                <mpath xlink:href="#path69"></mpath>
            </animateMotion>
        </circle><path id="path70" d="M 820.2756025668136 536.2196193931255
c 0 33.03530991270136 -8.083107744597141 9.488865613222732 -17.57197335781987 9.488865613222732
S 785.131655851174 569.2549293058269 785.131655851174 536.2196193931255
s 8.083107744597141 -9.488865613222732 17.57197335781987 -9.488865613222732
S 820.2756025668136 503.1843094804242 820.2756025668136 536.2196193931255
z" fill="none" stroke="none"></path>
        <circle cx="0" cy="0" r="3.6113653964669044" fill="#c4b5fd" opacity="0.9">
            <animateMotion begin="-13.481253645108865s" dur="20s" repeatCount="indefinite">
                <mpath xlink:href="#path70"></mpath>
            </animateMotion>
        </circle><path id="path71" d="M 1204.680222288354 1340.0060913414097
c 0 35.692028166407425 -8.733155827950752 10.25196553715958 -18.98512136511033 10.25196553715958
S 1166.709979558133 1375.6981195078172 1166.709979558133 1340.0060913414097
s 8.733155827950752 -10.25196553715958 18.98512136511033 -10.25196553715958
S 1204.680222288354 1304.3140631750023 1204.680222288354 1340.0060913414097
z" fill="none" stroke="none"></path>
        <circle cx="0" cy="0" r="4.289236299953545" fill="#c4b5fd" opacity="0.9">
            <animateMotion begin="-2.3056902736990548s" dur="20s" repeatCount="indefinite">
                <mpath xlink:href="#path71"></mpath>
            </animateMotion>
        </circle><path id="path72" d="M 509.53785123324946 847.9812656675581
c 0 27.768089850872894 -6.794319857128474 7.97594070184647 -14.770260558974943 7.97594070184647
S 479.9973301152996 875.749355518431 479.9973301152996 847.9812656675581
s 6.794319857128474 -7.97594070184647 14.770260558974943 -7.97594070184647
S 509.53785123324946 820.2131758166852 509.53785123324946 847.9812656675581
z" fill="none" stroke="none"></path>
        <circle cx="0" cy="0" r="4.653342439730358" fill="#ffffff" opacity="0.9">
            <animateMotion begin="-14.92681544718057s" dur="20s" repeatCount="indefinite">
                <mpath xlink:href="#path72"></mpath>
            </animateMotion>
        </circle><path id="path73" d="M 1743.8119913246935 901.1991397297871
c 0 22.89863437048858 -5.60285734597061 6.577267319182891 -12.1801246651535 6.577267319182891
S 1719.4517419943866 924.0977741002757 1719.4517419943866 901.1991397297871
s 5.60285734597061 -6.577267319182891 12.1801246651535 -6.577267319182891
S 1743.8119913246935 878.3005053592985 1743.8119913246935 901.1991397297871
z" fill="none" stroke="none"></path>
        <circle cx="0" cy="0" r="3.5522045543514" fill="#c4b5fd" opacity="0.9">
            <animateMotion begin="-9.063585820991555s" dur="20s" repeatCount="indefinite">
                <mpath xlink:href="#path73"></mpath>
            </animateMotion>
        </circle><path id="path74" d="M 2481.1776766560165 1149.9457952075268
c 0 32.03070068636814 -7.837299104111354 9.200307643956808 -17.03760674806816 9.200307643956808
S 2447.10246315988 1181.976495893895 2447.10246315988 1149.9457952075268
s 7.837299104111354 -9.200307643956808 17.03760674806816 -9.200307643956808
S 2481.1776766560165 1117.9150945211586 2481.1776766560165 1149.9457952075268
z" fill="none" stroke="none"></path>
        <circle cx="0" cy="0" r="3.6752945296217967" fill="#c4b5fd" opacity="0.9">
            <animateMotion begin="-0.3021625265156036s" dur="20s" repeatCount="indefinite">
                <mpath xlink:href="#path74"></mpath>
            </animateMotion>
        </circle><path id="path75" d="M 1990.5732262819895 1158.7344204183382
c 0 25.338390309806172 -6.199818905590871 7.2780482804762405 -13.477867186067112 7.2780482804762405
S 1963.617491909855 1184.0728107281443 1963.617491909855 1158.7344204183382
s 6.199818905590871 -7.2780482804762405 13.477867186067112 -7.2780482804762405
S 1990.5732262819895 1133.3960301085322 1990.5732262819895 1158.7344204183382
z" fill="none" stroke="none"></path>
        <circle cx="0" cy="0" r="5.313878129792218" fill="#ffffff" opacity="0.9">
            <animateMotion begin="-17.68171775568043s" dur="20s" repeatCount="indefinite">
                <mpath xlink:href="#path75"></mpath>
            </animateMotion>
        </circle><path id="path76" d="M 250.71023504487192 569.9976043980562
c 0 35.38624925186431 -8.658337582902968 10.164135423407833 -18.8224730063108 10.164135423407833
S 213.06528903225035 605.3838536499205 213.06528903225035 569.9976043980562
s 8.658337582902968 -10.164135423407833 18.8224730063108 -10.164135423407833
S 250.71023504487192 534.6113551461918 250.71023504487192 569.9976043980562
z" fill="none" stroke="none"></path>
        <circle cx="0" cy="0" r="6.0689937184253955" fill="#ffffff" opacity="0.9">
            <animateMotion begin="-9.206130643518398s" dur="20s" repeatCount="indefinite">
                <mpath xlink:href="#path76"></mpath>
            </animateMotion>
        </circle><path id="path77" d="M 591.9044793725525 804.8592645682306
c 0 21.802658442434737 -5.334693023148924 6.262465722827 -11.597158745975925 6.262465722827
S 568.7101618806007 826.6619230106654 568.7101618806007 804.8592645682306
s 5.334693023148924 -6.262465722827 11.597158745975925 -6.262465722827
S 591.9044793725525 783.0566061257958 591.9044793725525 804.8592645682306
z" fill="none" stroke="none"></path>
        <circle cx="0" cy="0" r="6.341975079258562" fill="#ffffff" opacity="0.9">
            <animateMotion begin="-14.558732739882254s" dur="20s" repeatCount="indefinite">
                <mpath xlink:href="#path77"></mpath>
            </animateMotion>
        </circle><path id="path78" d="M 2463.4169366724473 532.5577153040329
c 0 23.999716633456448 -5.872271091164875 6.893535628758768 -12.765806719923642 6.893535628758768
S 2437.8853232326 556.5574319374894 2437.8853232326 532.5577153040329
s 5.872271091164875 -6.893535628758768 12.765806719923642 -6.893535628758768
S 2463.4169366724473 508.5579986705764 2463.4169366724473 532.5577153040329
z" fill="none" stroke="none"></path>
        <circle cx="0" cy="0" r="6.42862939788976" fill="#c4b5fd" opacity="0.9">
            <animateMotion begin="-10.20353341587863s" dur="20s" repeatCount="indefinite">
                <mpath xlink:href="#path78"></mpath>
            </animateMotion>
        </circle><path id="path79" d="M 2407.081050806805 868.9954337078375
c 0 20.083034594375402 -4.913933996496109 5.768531213278042 -10.68246520977415 5.768531213278042
S 2385.716120387256 889.0784683022129 2385.716120387256 868.9954337078375
s 4.913933996496109 -5.768531213278042 10.68246520977415 -5.768531213278042
S 2407.081050806805 848.9123991134621 2407.081050806805 868.9954337078375
z" fill="none" stroke="none"></path>
        <circle cx="0" cy="0" r="5.907278501569079" fill="#ffffff" opacity="0.9">
            <animateMotion begin="-0.6893380973188057s" dur="20s" repeatCount="indefinite">
                <mpath xlink:href="#path79"></mpath>
            </animateMotion>
        </circle><path id="path80" d="M 1053.5074420335002 1280.1450229362151
c 0 29.706334682632992 -7.2685712521336034 8.532670600330754 -15.801241852464356 8.532670600330754
S 1021.9049583285715 1309.8513576188482 1021.9049583285715 1280.1450229362151
s 7.2685712521336034 -8.532670600330754 15.801241852464356 -8.532670600330754
S 1053.5074420335002 1250.438688253582 1053.5074420335002 1280.1450229362151
z" fill="none" stroke="none"></path>
        <circle cx="0" cy="0" r="4.752315655475774" fill="#ffffff" opacity="0.9">
            <animateMotion begin="-10.69435141574024s" dur="20s" repeatCount="indefinite">
                <mpath xlink:href="#path80"></mpath>
            </animateMotion>
        </circle><path id="path81" d="M 405.06860496239807 438.06893979361706
c 0 26.263766256044494 -6.42624067967046 7.543847754395759 -13.97008843406622 7.543847754395759
S 377.12842809426564 464.33270604966157 377.12842809426564 438.06893979361706
s 6.42624067967046 -7.543847754395759 13.97008843406622 -7.543847754395759
S 405.06860496239807 411.80517353757256 405.06860496239807 438.06893979361706
z" fill="none" stroke="none"></path>
        <circle cx="0" cy="0" r="5.961981597271459" fill="#c4b5fd" opacity="0.9">
            <animateMotion begin="-4.76622410149496s" dur="20s" repeatCount="indefinite">
                <mpath xlink:href="#path81"></mpath>
            </animateMotion>
        </circle><path id="path82" d="M 25.58650711480726 1086.8760954677095
c 0 34.1142435905231 -8.347102155127994 9.798772095150253 -18.145874250278247 9.798772095150253
S -10.705241385749234 1120.9903390582326 -10.705241385749234 1086.8760954677095
s 8.347102155127994 -9.798772095150253 18.145874250278247 -9.798772095150253
S 25.58650711480726 1052.7618518771865 25.58650711480726 1086.8760954677095
z" fill="none" stroke="none"></path>
        <circle cx="0" cy="0" r="4.0846493657472775" fill="#ffffff" opacity="0.9">
            <animateMotion begin="-4.146592561780986s" dur="20s" repeatCount="indefinite">
                <mpath xlink:href="#path82"></mpath>
            </animateMotion>
        </circle><path id="path83" d="M 1162.9766541537547 788.570685626582
c 0 19.92079344732946 -4.874236694559335 5.721930032743567 -10.596166727302903 5.721930032743567
S 1141.7843206991488 808.4914790739115 1141.7843206991488 788.570685626582
s 4.874236694559335 -5.721930032743567 10.596166727302903 -5.721930032743567
S 1162.9766541537547 768.6498921792524 1162.9766541537547 788.570685626582
z" fill="none" stroke="none"></path>
        <circle cx="0" cy="0" r="3.4340722190386472" fill="#ffffff" opacity="0.9">
            <animateMotion begin="-10.10129542617932s" dur="20s" repeatCount="indefinite">
                <mpath xlink:href="#path83"></mpath>
            </animateMotion>
        </circle><path id="path84" d="M 446.31914249882254 23.257570630379192
c 0 34.431691678237954 -8.424775623398647 9.88995399268537 -18.31472961608402 9.88995399268537
S 409.68968326665447 57.689262308617145 409.68968326665447 23.257570630379192
s 8.424775623398647 -9.88995399268537 18.31472961608402 -9.88995399268537
S 446.31914249882254 -11.174121047858762 446.31914249882254 23.257570630379192
z" fill="none" stroke="none"></path>
        <circle cx="0" cy="0" r="5.942702858579532" fill="#c4b5fd" opacity="0.9">
            <animateMotion begin="-9.660994006416935s" dur="20s" repeatCount="indefinite">
                <mpath xlink:href="#path84"></mpath>
            </animateMotion>
        </circle><path id="path85" d="M 664.6818631807233 518.0767224127409
c 0 21.706049005493185 -5.311054543897268 6.2347162037054895 -11.545770747602758 6.2347162037054895
S 641.5903216855178 539.782771418234 641.5903216855178 518.0767224127409
s 5.311054543897268 -6.2347162037054895 11.545770747602758 -6.2347162037054895
S 664.6818631807233 496.3706734072477 664.6818631807233 518.0767224127409
z" fill="none" stroke="none"></path>
        <circle cx="0" cy="0" r="4.5941478569137475" fill="#ffffff" opacity="0.9">
            <animateMotion begin="-19.049539142422486s" dur="20s" repeatCount="indefinite">
                <mpath xlink:href="#path85"></mpath>
            </animateMotion>
        </circle><path id="path86" d="M 1276.9617219860681 132.68256033986182
c 0 24.68333931000797 -6.039540469470034 7.089895333725694 -13.129435803195728 7.089895333725694
S 1250.7028503796766 157.3658996498698 1250.7028503796766 132.68256033986182
s 6.039540469470034 -7.089895333725694 13.129435803195728 -7.089895333725694
S 1276.9617219860681 107.99922102985386 1276.9617219860681 132.68256033986182
z" fill="none" stroke="none"></path>
        <circle cx="0" cy="0" r="3.7689250259661313" fill="#ffffff" opacity="0.9">
            <animateMotion begin="-17.313817211211187s" dur="20s" repeatCount="indefinite">
                <mpath xlink:href="#path86"></mpath>
            </animateMotion>
        </circle><path id="path87" d="M 586.63743686748 983.5327941204462
c 0 31.05038850818064 -7.597435486044199 8.918728614051886 -16.516164100096084 8.918728614051886
S 553.6051086672879 1014.5831826286268 553.6051086672879 983.5327941204462
s 7.597435486044199 -8.918728614051886 16.516164100096084 -8.918728614051886
S 586.63743686748 952.4824056122656 586.63743686748 983.5327941204462
z" fill="none" stroke="none"></path>
        <circle cx="0" cy="0" r="6.156233282375608" fill="#ffffff" opacity="0.9">
            <animateMotion begin="-12.348022751416089s" dur="20s" repeatCount="indefinite">
                <mpath xlink:href="#path87"></mpath>
            </animateMotion>
        </circle><path id="path88" d="M 852.0204326544509 905.6245590852707
c 0 25.521015006134117 -6.244503671713666 7.330504310272565 -13.575007981986232 7.330504310272565
S 824.8704166904785 931.1455740914048 824.8704166904785 905.6245590852707
s 6.244503671713666 -7.330504310272565 13.575007981986232 -7.330504310272565
S 852.0204326544509 880.1035440791366 852.0204326544509 905.6245590852707
z" fill="none" stroke="none"></path>
        <circle cx="0" cy="0" r="4.167753727571312" fill="#ffffff" opacity="0.9">
            <animateMotion begin="-18.972613886735314s" dur="20s" repeatCount="indefinite">
                <mpath xlink:href="#path88"></mpath>
            </animateMotion>
        </circle><path id="path89" d="M 632.9688899846936 607.1944739549317
c 0 23.060297259868175 -5.642413159329447 6.623702404430221 -12.266115563759667 6.623702404430221
S 608.4366588571744 630.2547712147999 608.4366588571744 607.1944739549317
s 5.642413159329447 -6.623702404430221 12.266115563759667 -6.623702404430221
S 632.9688899846936 584.1341766950635 632.9688899846936 607.1944739549317
z" fill="none" stroke="none"></path>
        <circle cx="0" cy="0" r="4.23801273118334" fill="#ffffff" opacity="0.9">
            <animateMotion begin="-15.74553136878948s" dur="20s" repeatCount="indefinite">
                <mpath xlink:href="#path89"></mpath>
            </animateMotion>
        </circle><path id="path90" d="M 148.16065033361207 152.6568398733773
c 0 31.691192993326112 -7.754228072835112 9.102789476806437 -16.857017549641547 9.102789476806437
S 114.44661523432899 184.34803286670342 114.44661523432899 152.6568398733773
s 7.754228072835112 -9.102789476806437 16.857017549641547 -9.102789476806437
S 148.16065033361207 120.96564688005118 148.16065033361207 152.6568398733773
z" fill="none" stroke="none"></path>
        <circle cx="0" cy="0" r="5.370691330684492" fill="#ffffff" opacity="0.9">
            <animateMotion begin="-0.2803136674164053s" dur="20s" repeatCount="indefinite">
                <mpath xlink:href="#path90"></mpath>
            </animateMotion>
        </circle><path id="path91" d="M 2347.8943586268533 858.7076532077199
c 0 27.595836838557098 -6.752172843476736 7.926463772777039 -14.678636616253776 7.926463772777039
S 2318.537085394346 886.303490046277 2318.537085394346 858.7076532077199
s 6.752172843476736 -7.926463772777039 14.678636616253776 -7.926463772777039
S 2347.8943586268533 831.1118163691627 2347.8943586268533 858.7076532077199
z" fill="none" stroke="none"></path>
        <circle cx="0" cy="0" r="4.828521268118621" fill="#ffffff" opacity="0.9">
            <animateMotion begin="-12.399196143277438s" dur="20s" repeatCount="indefinite">
                <mpath xlink:href="#path91"></mpath>
            </animateMotion>
        </circle><path id="path92" d="M 894.0402253503212 540.8328828153643
c 0 26.42934637206078 -6.466754963376574 7.5914080004855435 -14.058162963862117 7.5914080004855435
S 865.9238994225971 567.2622291874251 865.9238994225971 540.8328828153643
s 6.466754963376574 -7.5914080004855435 14.058162963862117 -7.5914080004855435
S 894.0402253503212 514.4035364433036 894.0402253503212 540.8328828153643
z" fill="none" stroke="none"></path>
        <circle cx="0" cy="0" r="4.269761235293681" fill="#ffffff" opacity="0.9">
            <animateMotion begin="-11.14031243060273s" dur="20s" repeatCount="indefinite">
                <mpath xlink:href="#path92"></mpath>
            </animateMotion>
        </circle><path id="path93" d="M 1392.2910080776935 479.185359183107
c 0 22.955345447029035 -5.616733460443274 6.593556670955149 -12.210290131398423 6.593556670955149
S 1367.8704278148969 502.14070463013604 1367.8704278148969 479.185359183107
s 5.616733460443274 -6.593556670955149 12.210290131398423 -6.593556670955149
S 1392.2910080776935 456.2300137360779 1392.2910080776935 479.185359183107
z" fill="none" stroke="none"></path>
        <circle cx="0" cy="0" r="4.062266921341364" fill="#ffffff" opacity="0.9">
            <animateMotion begin="-5.972398743343685s" dur="20s" repeatCount="indefinite">
                <mpath xlink:href="#path93"></mpath>
            </animateMotion>
        </circle><path id="path94" d="M 1164.5541091091573 867.069472165399
c 0 22.92875831589602 -5.610228098570302 6.58591994179992 -12.196148040370222 6.58591994179992
S 1140.1618130284169 889.9982304812951 1140.1618130284169 867.069472165399
s 5.610228098570302 -6.58591994179992 12.196148040370222 -6.58591994179992
S 1164.5541091091573 844.140713849503 1164.5541091091573 867.069472165399
z" fill="none" stroke="none"></path>
        <circle cx="0" cy="0" r="5.685794261190487" fill="#ffffff" opacity="0.9">
            <animateMotion begin="-8.905674538636038s" dur="20s" repeatCount="indefinite">
                <mpath xlink:href="#path94"></mpath>
            </animateMotion>
        </circle><path id="path95" d="M 1253.333092398952 421.1986152110892
c 0 20.45814326954544 -5.00571590637814 5.876275194443904 -10.881991100822043 5.876275194443904
S 1231.569110197308 441.6567584806346 1231.569110197308 421.1986152110892
s 5.00571590637814 -5.876275194443904 10.881991100822043 -5.876275194443904
S 1253.333092398952 400.7404719415438 1253.333092398952 421.1986152110892
z" fill="none" stroke="none"></path>
        <circle cx="0" cy="0" r="4.381694447525913" fill="#c4b5fd" opacity="0.9">
            <animateMotion begin="-17.249257744475457s" dur="20s" repeatCount="indefinite">
                <mpath xlink:href="#path95"></mpath>
            </animateMotion>
        </circle><path id="path96" d="M 1776.8322454073343 47.53002777164564
c 0 21.999312502738192 -5.382810505989132 6.31895146355246 -11.701761969541591 6.31895146355246
S 1753.428721468251 69.52934027438383 1753.428721468251 47.53002777164564
s 5.382810505989132 -6.31895146355246 11.701761969541591 -6.31895146355246
S 1776.8322454073343 25.53071526890745 1776.8322454073343 47.53002777164564
z" fill="none" stroke="none"></path>
        <circle cx="0" cy="0" r="5.930392307728079" fill="#c4b5fd" opacity="0.9">
            <animateMotion begin="-11.285333949826768s" dur="20s" repeatCount="indefinite">
                <mpath xlink:href="#path96"></mpath>
            </animateMotion>
        </circle><path id="path97" d="M 189.4429222008149 824.9125318837216
c 0 37.024636443217084 -9.059219555255243 10.634735999647459 -19.6939555549027 10.634735999647459
S 150.05501109100948 861.9371683269387 150.05501109100948 824.9125318837216
s 9.059219555255243 -10.634735999647459 19.6939555549027 -10.634735999647459
S 189.4429222008149 787.8878954405045 189.4429222008149 824.9125318837216
z" fill="none" stroke="none"></path>
        <circle cx="0" cy="0" r="5.95609612183701" fill="#c4b5fd" opacity="0.9">
            <animateMotion begin="-7.055191620885384s" dur="20s" repeatCount="indefinite">
                <mpath xlink:href="#path97"></mpath>
            </animateMotion>
        </circle><path id="path98" d="M 707.2310259470485 285.3953049580311
c 0 29.14486923042495 -7.131191407444401 8.371398608739081 -15.502590016183483 8.371398608739081
S 676.2258459146815 314.54017418845604 676.2258459146815 285.3953049580311
s 7.131191407444401 -8.371398608739081 15.502590016183483 -8.371398608739081
S 707.2310259470485 256.25043572760615 707.2310259470485 285.3953049580311
z" fill="none" stroke="none"></path>
        <circle cx="0" cy="0" r="3.60081457263336" fill="#ffffff" opacity="0.9">
            <animateMotion begin="-13.230762142173841s" dur="20s" repeatCount="indefinite">
                <mpath xlink:href="#path98"></mpath>
            </animateMotion>
        </circle><path id="path99" d="M 1384.2752227683266 951.4884458344053
c 0 36.28346043038069 -8.87786797764634 10.421845017237008 -19.299712994883347 10.421845017237008
S 1345.67579677856 987.771906264786 1345.67579677856 951.4884458344053
s 8.87786797764634 -10.421845017237008 19.299712994883347 -10.421845017237008
S 1384.2752227683266 915.2049854040246 1384.2752227683266 951.4884458344053
z" fill="none" stroke="none"></path>
        <circle cx="0" cy="0" r="6.20165795429292" fill="#ffffff" opacity="0.9">
            <animateMotion begin="-4.410171519124746s" dur="20s" repeatCount="indefinite">
                <mpath xlink:href="#path99"></mpath>
            </animateMotion>
        </circle></g>
</svg>
